{"title":"Kill Speed 2010 BRRip.H264.Feel-Free","uid":5893111,"size":1495202413,"categoryP":"video","categoryS":"movies","magnet":"?xt=urn:btih:ae0faa412f57ddffffbb848943d92c61492a471e&amp;dn=Kill+Speed+2010+BRRip.H264.Feel-Free&amp;tr=udp%3A%2F%2Ftracker.openbittorrent.com%3A80&amp;tr=udp%3A%2F%2Fopen.demonii.com%3A1337&amp;tr=udp%3A%2F%2Ftracker.coppersurfer.tk%3A6969&amp;tr=udp%3A%2F%2Fexodus.desync.com%3A6969","seeders":1,"leechers":0,"uploader":"neon","files":-1,"time":1287351477,"description":"Tale about best friends who fly home-built, high-tech planes to deliver Mexican manufactured crystal meth throughout rural California in order to fund their Hollywood, rock-star lifestyle. That is until a beautiful young woman who is not what she pretends to be infiltrates their group. \n\nGenre: Action\nLanguage:English\n &lt;a href=&quot; http://www.imdb.com/title/tt1027683/&quot; rel=&quot;nofollow&quot; target=&quot;_NEW&quot;&gt; http://www.imdb.com/title/tt1027683/&lt;/a&gt;\nSource:720p BluRay x264-aAF\n\nGeneral\nComplete name :Kill.Speed.2010.BRRip.H264.Feel-Free\nFormat : MPEG-4\nCodec ID : qt\nFile size : 1.39 GiB\nDuration : 1h 51mn\nOverall bit rate : 1 783 Kbps\nVideo #1\nCodec ID : avc1\nCodec ID/Info : Advanced Video Coding\nDuration : 1h 51mn\nBit rate mode : Variable\nBit rate : 1 536 Kbps\nWidth : 720 pixels\nHeight : 384 pixels\nDisplay aspect ratio : 1.875\nFrame rate mode : Constant\nFrame rate : 29.970 fps\nResolution : 24 bits\nColorimetry : 4:2:0\nScan type : Progressive\nBits/(Pixel*Frame) : 0.185\nStream size : 1.20 GiB (86%)\nAudio #2\nID : 2\nFormat : AAC\nFormat/Info : Advanced Audio Codec\nFormat version : Version 4\nFormat profile : LC\nFormat settings, SBR : No\nCodec ID : 40\nDuration : 1h 51mn\nBit rate mode : Variable\nBit rate : 242 Kbps\nChannel(s) : 6 channels\nChannel positions : Front: L C R, Rear: L R, LFE\nSampling rate : 48.0 KHz\nResolution : 16 bits\nStream size : 193 MiB (14%)","torrent":{"xt":"urn:btih:ae0faa412f57ddffffbb848943d92c61492a471e","amp;dn":"Kill+Speed+2010+BRRip.H264.Feel-Free","amp;tr":["udp%3A%2F%2Ftracker.openbittorrent.com%3A80","udp%3A%2F%2Fopen.demonii.com%3A1337","udp%3A%2F%2Ftracker.coppersurfer.tk%3A6969","udp%3A%2F%2Fexodus.desync.com%3A6969"],"infoHash":"ae0faa412f57ddffffbb848943d92c61492a471e","infoHashBuffer":{"type":"Buffer","data":[174,15,170,65,47,87,221,255,255,187,132,137,67,217,44,97,73,42,71,30]},"announce":[],"urlList":[]}}